<svg id="Icons_Actions_ic-actions-star" data-name="Icons / Actions / ic-actions-star" xmlns="http://www.w3.org/2000/svg" width="20" height="20" viewBox="0 0 20 20">
  <rect id="Rectangle_160" data-name="Rectangle 160" width="20" height="20" fill="none"/>
  <g id="ic-actions-star" transform="translate(1.628 2.017)">
    <path id="Path_38" data-name="Path 38" d="M9.493,3.064a.9.9,0,0,1,1.717,0l1.55,4.767h5A.908.908,0,0,1,18.293,9.5l-4.058,2.942,1.55,4.775a.9.9,0,0,1-1.392,1.008l-4.067-2.975L6.268,18.2a.9.9,0,0,1-1.392-1.008l1.55-4.775L2.368,9.472A.908.908,0,0,1,2.9,7.806h5Z" transform="translate(-1.959 -2.435)" fill="#ddd" fill-rule="evenodd"/>
  </g>
</svg>
